<svg xmlns="http://www.w3.org/2000/svg" viewBox="0 0 221 243.2" fill="#6e3ff3">
  <g>
    <path d="M110.5,15.1c4.2,0,8.3,1.1,12,3.2l71.5,41.3c7.4,4.3,12,12.2,12,20.7v82.6c0,8.5-4.6,16.4-12,20.7l-71.5,41.3c-3.6,2.1-7.8,3.2-12,3.2s-8.3-1.1-12-3.2l-71.5-41.3c-7.4-4.3-12-12.2-12-20.7v-82.6c0-8.5,4.6-16.5,12-20.7L98.6,18.3c3.6-2.1,7.8-3.2,12-3.2M110.5,0c-6.7,0-13.5,1.7-19.5,5.2L19.5,46.5C7.4,53.5,0,66.4,0,80.3v82.6c0,13.9,7.4,26.8,19.5,33.8l71.5,41.3c6,3.5,12.8,5.2,19.5,5.2s13.5-1.7,19.5-5.2l71.5-41.3c12.1-7,19.5-19.9,19.5-33.8v-82.6c0-13.9-7.4-26.8-19.5-33.8L130.1,5.2c-6-3.5-12.8-5.2-19.5-5.2h0Z"></path>
    <g>
      <path d="M99,135.1l5.3-3.9v-22.1c0-2.5-1.7-4.6-3.8-4.6h-8.2v-18.1c0-1.8-1.3-3.2-2.8-3.2s-2.8,1.4-2.8,3.2v18.1h-8.2c-2.1,0-3.8,2-3.8,4.6v14.9l24.3,11.1h0Z"></path>
      <path d="M56.5,115.7l5.8,2.6v-20.8c0-2.5-1.7-4.6-3.8-4.6h-8.2v-23.4c0-1.8-1.3-3.2-2.8-3.2s-2.8,1.4-2.8,3.2v23.4h-8.2c-2.1,0-3.8,2-3.8,4.6v41.9l23.8-23.7h0Z"></path>
      <path d="M188.4,88.9v-8.4c0-1.7-1.7-3.1-3.8-3.1h-8.2v-15.8c0-1.2-1.3-2.1-2.9-2.1s-2.9,1-2.9,2.1v15.8h-8.2c-2.1,0-3.8,1.4-3.8,3.1v17.1l29.6-8.7h0Z"></path>
      <path d="M142.9,102.4l3.4-1v-39.6c0-2.5-1.7-4.5-3.8-4.5h-8.2v-10.4c0-1.8-1.3-3.2-2.9-3.2s-2.9,1.4-2.9,3.2v10.4h-8.2c-2.1,0-3.8,2-3.8,4.5v60.1l26.1-19.5h0Z"></path>
      <path class="st0" d="M100.3,147l-25.6-11.7v30c0,2.5,1.7,4.6,3.8,4.6h8.2v6.1c0,1.8,1.3,3.2,2.8,3.2s2.8-1.4,2.8-3.2v-6.1h8.2c2.1,0,3.8-2,3.8-4.6v-21.4l-4,3h0Z"></path>
      <path class="st0" d="M158.8,108.4v14.1c0,1.7,1.7,3.1,3.8,3.1h8.2v16.3c0,1.2,1.3,2.1,2.9,2.1s2.9-1,2.9-2.1v-16.3h8.2c2.1,0,3.8-1.4,3.8-3.1v-22.4l-29.6,8.3h0Z"></path>
      <path class="st0" d="M58.7,128l-26,25.9v5.8c0,2.5,1.7,4.6,3.8,4.6h8.2v20.7c0,1.8,1.3,3.2,2.8,3.2s2.8-1.4,2.8-3.2v-20.7h8.2c2.1,0,3.8-2,3.8-4.6v-30.1l-3.5-1.6h0Z"></path>
      <path class="st0" d="M116.8,134.7v14.3c0,2.5,1.7,4.6,3.8,4.6h8.2v10.4c0,1.8,1.3,3.2,2.9,3.2s2.9-1.4,2.9-3.2v-10.4h8.2c2.1,0,3.8-2,3.8-4.6v-36.3s-29.6,22-29.6,22Z"></path>
    </g>
  </g>
</svg>
